<svg xmlns="http://www.w3.org/2000/svg" viewBox="0 0 24.57 24.83"><defs><style>.a{fill:#084b83;}</style></defs><path class="a" d="M11,.5c2.13-1.34,5.33.15,5.34,2.77s-3.89,4.11-5.79,2.21C8.8,4.33,9.22,1.41,11,.5Z"/><path class="a" d="M21.29,15.35A2.09,2.09,0,0,1,22,15.1a2.17,2.17,0,0,1,2.22,1.06,2.06,2.06,0,0,1,.29,1.06,1.79,1.79,0,0,1-.86,1.83c-.56.42-1.27.75-1.78,1.11-.76.37-1.53.82-2.32,1.24a7,7,0,0,1-3.64.63c-2-.24-3.11-1.77-4.08-3.35-.41-.69-.81-1.38-1.25-2C9,19,7.53,21.35,5.75,23.5a3.07,3.07,0,0,1-4.27.79,3,3,0,0,1-1-1.18C-.92,21.23,1.16,19.3,2,17.7c2.41-3.09,4.57-7.35,8.75-8.18,4.2-.18,5,5,7.07,7.59"/></svg>