<svg xmlns="http://www.w3.org/2000/svg" viewBox="0 0 129.22 51.2"><defs><style>.cls-1{fill:#fafafa;}</style></defs><g id="Capa_2" data-name="Capa 2"><g id="Capa_1-2" data-name="Capa 1"><path class="cls-1" d="M12,4.83A3.1,3.1,0,0,1,12.89.54,3.07,3.07,0,0,1,14.75,0c2.12-.33,2.76,2,3.66,3.39C23.83,13.89,30,25.09,28.54,37.28,27.79,43.82,22.21,51,15,49.79c-2.6-.17-3.08-3.08-4.17-4.9,2.41,1.13,4.94,3.41,7.71,2,5.38-2.13,6.78-8.65,6.22-13.83C23.57,22.5,17,13.81,12,4.83Z"/><path class="cls-1" d="M.74,45.42C2.34,38.74,3.85,32,3.57,25c.11-3.26-.44-6.57.12-9.8.61-1.82,2.47-1.84,4.07-1.62,2.82,1.39,1.67,5,1.77,7.43C8.87,30.86,7.74,42,0,49"/><path class="cls-1" d="M37.05,26.31c2.13-1.34,5.33.15,5.34,2.77s-3.89,4.11-5.79,2.21C34.82,30.14,35.24,27.22,37.05,26.31Z"/><path class="cls-1" d="M48,40.71C47.9,35.29,52.41,29.29,58,30a2.39,2.39,0,0,1,2.07,2c.5,3.88-3.57,7.17-6.1,9.77,1.46,1.89,3.06,4.46,5.84,4.08C65.69,44.69,69,39.26,72.9,35.3A7.63,7.63,0,0,1,77.47,33a1.6,1.6,0,0,1,1.85,1.28.77.77,0,0,1,0,.15c.3,3-.52,6-1.18,9,4.67-4,8.92-8.82,14.62-11.43,2.19-1,5.59-1.22,6.81,1.32,1.11,3.51-.06,7.15-.7,10.63,2.9-3.08,5.52-6.61,9.23-8.78,2.42-1.47,6.58-.41,6.52,2.88.56,3.55-1.47,8.63,2.22,10.94,4.27-.16,8.21-2,12.36-2.87-3.9,2.14-8,4.32-12.42,5-1.77.19-4.3-.07-4.78-2.16-.72-3.49-.34-7.11-1.1-10.59-5,2-7.93,6.69-12,10-1.49.86-4.15,1.56-5.18-.27.13-4.29,1.44-8.47,1.2-12.79C88.31,38.9,84,46.22,76.72,48.6c-5.12.1-2.72-6.41-2.55-9.48C70.29,43,66.69,47.56,61.53,49.8,57,51.53,52.35,48.57,49.74,45c-2.41,1.3-4.87,3.23-7.78,2.88s-3.87-3.35-5.33-5.33c-1.57,2.3-3.08,4.65-4.86,6.8a3.07,3.07,0,0,1-4.27.8,3,3,0,0,1-1-1.19c-1.38-1.88.7-3.81,1.57-5.41,2.41-3.09,4.57-7.35,8.75-8.18,4.2-.18,5,5,7.07,7.59,1.38-.71,2.75-1.44,4.1-2.21m7.41-7.55c-1.42.45-3.22,2-2.71,3.65C54.13,37.26,57.12,34,55.38,33.16Z"/></g></g></svg>